<svg xmlns="http://www.w3.org/2000/svg" xmlns:xlink="http://www.w3.org/1999/xlink" class="" app-context="doc-2d" x="0px" y="0px" width="100%" height="100%">
  <g transform="matrix(1,0,0,1,0,0)" name="Layer" class="oeuf-logo">
    <ellipse cx="240" cy="235" rx="210" ry="175" fill="#FFff00" stroke="#000000" stroke-width="0" stroke-linecap="butt" stroke-linejoin="miter" opacity="1" transform="matrix(1 0 0 1 0 0)" class="lower-body"/>
    <ellipse cx="240" cy="185" rx="160" ry="185" fill="#FFff00" stroke="#000000" stroke-width="0" stroke-linecap="butt" stroke-linejoin="miter" opacity="1" transform="matrix(1 0 0 1 0 0)" class="upper-body"/>
    <ellipse cx="200" cy="60" rx="8" ry="8" fill="#CD853F" stroke="#000000" stroke-width="0.00" stroke-linecap="butt" stroke-linejoin="miter" opacity="1" transform="matrix(1 0 0 1 0 0)" class="left-eye"/>
    <ellipse cx="280" cy="60" rx="8" ry="8" fill="#CD853F" stroke="#000000" stroke-width="0.00" stroke-linecap="butt" stroke-linejoin="miter" opacity="1" transform="matrix(1 0 0 1 0 0)" class="right-eye"/>
    <ellipse cx="240" cy="90" rx="18" ry="10" fill="#FF9966" stroke="#000000" stroke-width="0.00" stroke-linecap="butt" stroke-linejoin="miter" opacity="1" transform="matrix(1 0 0 1 0 0)" class="nose"/>
    <ellipse cx="320" cy="90" rx="14" ry="14" fill="#FFCC00" stroke="#000000" stroke-width="0.00" stroke-linecap="butt" stroke-linejoin="miter" opacity="1" transform="matrix(1 0 0 1 0 0)" class="right-cheek"/>
    <ellipse cx="160" cy="90" rx="14" ry="14" fill="#FFCC00" stroke="#000000" stroke-width="0.00" stroke-linecap="butt" stroke-linejoin="miter" opacity="1" transform="matrix(1 0 0 1 0 0)" class="left-cheek"/>
    <ellipse cx="440" cy="195" rx="40" ry="25" fill="#FFff00" stroke="#000000" stroke-width="0.00" stroke-linecap="butt" stroke-linejoin="miter" opacity="1" transform="matrix(1 0 0 1 0 0)" class="right-arm"/>
    <ellipse cx="40" cy="195" rx="40" ry="25" fill="#FFff00" stroke="#000000" stroke-width="0.00" stroke-linecap="butt" stroke-linejoin="miter" opacity="1" transform="matrix(1 0 0 1 0 0)" class="left-arm"/>
  </g>
</svg>